<svg width="164" height="46" viewBox="0 0 164 46" fill="none" xmlns="http://www.w3.org/2000/svg"><path d="M40.6926 23.6291L41.8785 23.4174V14.1409L40.72 14.0143V13.3257H48.0045L48.208 15.3339H47.4363L47.1133 14.1551L43.2396 14.064V18.1543L45.8504 18.1057L46.0611 17.0039H46.7771V20.0208H46.0611L45.8504 18.9473L43.2396 18.9058V23.4671L47.408 23.3344L48.1098 21.8801L48.7914 22.0493L48.4754 24.2246H40.6926V23.6291Z" fill="#3E454C"></path><path d="M49.2752 23.6287L50.3284 23.4738L52.6647 20.4204L50.2231 17.2415L49.261 17.1149V16.3716H52.7772V17.1149L51.8019 17.2415L53.1701 19.2558L53.5073 19.7672L53.7878 19.2771L55.1773 17.2213L54.1808 17.1149V16.3716H57.3455V17.1149L56.2579 17.2486L53.9701 20.2452L56.4827 23.488L57.4012 23.6287V24.2242H53.9276V23.6287L54.8968 23.4809C54.7185 23.2135 54.5646 22.9877 54.4329 22.8003C54.3023 22.613 54.1909 22.455 54.0998 22.3264C54.0086 22.1978 53.9337 22.0945 53.8749 22.0175C53.8162 21.9405 53.7696 21.8777 53.7352 21.8322C53.6997 21.7856 53.6724 21.7512 53.6542 21.7299C53.6359 21.7086 53.6218 21.6884 53.6126 21.6701L53.1205 20.9754L52.8258 21.5081L51.4505 23.4809L52.7204 23.6287V24.2242H49.2752V23.6287Z" fill="#3E454C"></path><path d="M63.3246 19.5718C63.3387 19.3328 63.3418 19.0928 63.3347 18.8518C63.3276 18.6118 63.2993 18.3819 63.2476 18.1651C63.196 17.9474 63.117 17.7479 63.0116 17.5676C62.9073 17.3884 62.7655 17.2415 62.5873 17.1291C62.4658 17.0501 62.3281 16.9904 62.1741 16.9509C62.0192 16.9114 61.844 16.8922 61.6475 16.8922C61.3852 16.8922 61.131 16.9398 60.8859 17.038C60.6409 17.1372 60.4201 17.2932 60.2256 17.5089C60.0322 17.7246 59.8692 18.0011 59.7385 18.3393C59.6079 18.6796 59.5238 19.0898 59.4853 19.5718H63.3246ZM58.1313 20.3226C58.1313 19.7241 58.2265 19.1721 58.4159 18.6658C58.6053 18.1615 58.8696 17.725 59.2089 17.3553C59.5481 16.9847 59.9563 16.694 60.4333 16.4803C60.9103 16.2677 61.4369 16.1542 62.0121 16.1401C62.4243 16.131 62.7959 16.1907 63.1281 16.3193C63.4603 16.4479 63.7438 16.6393 63.9778 16.8925C64.2107 17.1447 64.395 17.4526 64.5277 17.8181C64.6614 18.1827 64.7373 18.5969 64.7566 19.0597C64.7657 19.3544 64.7596 19.6096 64.7383 19.8254C64.7171 20.0401 64.6958 20.2315 64.6725 20.4006H59.4722V20.4806C59.4722 20.5069 59.4742 20.5332 59.4793 20.5616C59.4975 21.1277 59.5937 21.5956 59.7669 21.9652C59.9401 22.3359 60.1558 22.6286 60.416 22.8453C60.6753 23.063 60.9619 23.2159 61.2758 23.303C61.5888 23.3891 61.8956 23.4316 62.1944 23.4316C62.3767 23.4316 62.5691 23.4215 62.7706 23.3992C62.9711 23.38 63.1666 23.3486 63.356 23.3081C63.5454 23.2686 63.7216 23.223 63.8826 23.1724C64.0436 23.1207 64.1732 23.0671 64.2725 23.0114L64.5317 23.6069C64.396 23.7284 64.2188 23.8388 64.0011 23.938C63.7844 24.0352 63.5464 24.1183 63.2891 24.1871C63.0319 24.254 62.7635 24.3056 62.482 24.3411C62.2015 24.3755 61.928 24.3937 61.6617 24.3937C61.0956 24.3937 60.5933 24.2955 60.1558 24.1021C59.7183 23.9076 59.3507 23.6352 59.0509 23.2808C58.7511 22.9273 58.5233 22.502 58.3663 21.9997C58.2093 21.4994 58.1313 20.9414 58.1313 20.3226Z" fill="#3E454C"></path><path d="M66.2015 20.4488C66.1975 19.8027 66.2927 19.2204 66.4892 18.7009C66.6856 18.1824 66.956 17.7378 67.2993 17.3682C67.6437 16.9985 68.0487 16.7119 68.5136 16.5043C68.9794 16.2987 69.4807 16.1843 70.0195 16.162C70.216 16.1559 70.4155 16.16 70.619 16.1711C70.8226 16.1833 71.014 16.2045 71.1943 16.2349C71.3745 16.2643 71.5396 16.3038 71.6895 16.3504C71.8394 16.397 71.9609 16.4516 72.0541 16.5114V18.1955H71.3877L71.0302 17.3114C70.9552 17.2517 70.8682 17.2 70.7699 17.1575C70.6717 17.115 70.5714 17.0805 70.4681 17.0522C70.3648 17.0238 70.2625 17.0046 70.1593 16.9924C70.057 16.9803 69.9628 16.9742 69.8787 16.9742C69.5658 16.9742 69.266 17.034 68.9804 17.1504C68.6949 17.2669 68.4427 17.4441 68.2229 17.6811C68.0032 17.916 67.827 18.2138 67.6963 18.5713C67.5657 18.9288 67.4978 19.35 67.4928 19.8311C67.4887 20.4681 67.5626 21.0129 67.7176 21.4666C67.8715 21.9193 68.073 22.291 68.3212 22.5786C68.5683 22.8672 68.8447 23.0769 69.1496 23.2105C69.4534 23.3432 69.7521 23.4111 70.0468 23.4111C70.2301 23.4111 70.4195 23.3989 70.616 23.3756C70.8125 23.3513 71.0018 23.3219 71.1841 23.2845C71.3664 23.247 71.5355 23.2014 71.6895 23.1477C71.8434 23.0931 71.97 23.0394 72.0682 22.9817L72.3072 23.6065C72.1715 23.728 72.0034 23.8364 71.8019 23.9296C71.6004 24.0227 71.3796 24.1027 71.1386 24.1686C70.8975 24.2334 70.6454 24.284 70.38 24.3185C70.1167 24.3539 69.8514 24.3721 69.584 24.3721C69.0412 24.3721 68.5622 24.2729 68.145 24.0774C67.7287 23.881 67.3773 23.6065 67.0887 23.2561C66.8021 22.9047 66.5823 22.4895 66.4335 22.0105C66.2836 21.5304 66.2056 21.0099 66.2015 20.4488Z" fill="#3E454C"></path><path d="M74.2997 17.3685L73.5767 17.1578V16.617L75.3803 16.2312L75.6264 16.3578V21.1925C75.6264 21.5814 75.6477 21.9146 75.6892 22.1931C75.7317 22.4716 75.8087 22.7015 75.9211 22.8807C76.0325 23.061 76.1875 23.1937 76.3839 23.2807C76.5804 23.3678 76.8326 23.4114 77.1414 23.4114C77.3521 23.4114 77.5597 23.381 77.7622 23.3223C77.9668 23.2645 78.1562 23.1937 78.3314 23.1126C78.5066 23.0306 78.6595 22.9445 78.7912 22.8534C78.9218 22.7612 79.018 22.6832 79.0788 22.6184V17.4313L78.2018 17.2065V16.6312L80.208 16.2312L80.4054 16.3507V23.6291H81.247V24.1608C81.1771 24.1983 81.091 24.2347 80.9877 24.2692C80.8844 24.3056 80.7731 24.337 80.6546 24.3644C80.5351 24.3937 80.4135 24.416 80.29 24.4363C80.1654 24.4535 80.0469 24.4636 79.9345 24.4636C79.7097 24.4636 79.5335 24.415 79.4059 24.3188C79.2773 24.2246 79.2124 24.0697 79.2124 23.86V23.2848C78.8053 23.6392 78.378 23.9096 77.9314 24.095C77.4847 24.2793 77.0483 24.3725 76.6219 24.3725C76.071 24.3725 75.6406 24.2864 75.3317 24.1152C75.0228 23.9451 74.7919 23.7091 74.64 23.4073C74.4881 23.1045 74.3949 22.7481 74.3595 22.3369C74.324 21.9257 74.3038 21.4771 74.2997 20.99V17.3685Z" fill="#3E454C"></path><path d="M83.7175 22.3864C83.7175 21.5245 83.7185 20.6698 83.7216 19.8211C83.7236 18.9725 83.7246 18.1167 83.7246 17.2559H82.6511V16.7293C82.8567 16.6777 83.0289 16.6372 83.1666 16.6068C83.3053 16.5774 83.4198 16.542 83.5109 16.5015C83.6021 16.462 83.678 16.4113 83.7388 16.3506C83.7995 16.2898 83.8563 16.2017 83.9069 16.0842C83.9403 16.0042 83.9808 15.8867 84.0304 15.7328C84.0791 15.5779 84.1256 15.4209 84.1702 15.2599C84.2148 15.0978 84.2532 14.9449 84.2867 14.8031C84.3191 14.6603 84.3393 14.5591 84.3495 14.4983H85.0442V16.3718H87.4028V17.2559H85.0442V20.7923C85.0442 21.3362 85.0513 21.7767 85.0654 22.115C85.0796 22.4542 85.1141 22.7206 85.1708 22.913C85.2265 23.1044 85.3085 23.234 85.4158 23.3019C85.5232 23.3697 85.6741 23.4031 85.8655 23.4031C85.982 23.4031 86.1116 23.391 86.2544 23.3687C86.3972 23.3444 86.5349 23.3171 86.6686 23.2847C86.8023 23.2512 86.9248 23.2148 87.0372 23.1753C87.1496 23.1358 87.2337 23.0963 87.2894 23.0588L87.5071 23.6766C87.3998 23.7951 87.257 23.8973 87.0787 23.9855C86.9015 24.0746 86.7081 24.1495 86.5005 24.2103C86.2919 24.271 86.0842 24.3166 85.8756 24.347C85.668 24.3784 85.4837 24.3926 85.3247 24.3926C84.8153 24.3926 84.4193 24.2356 84.1388 23.9237C83.8583 23.6087 83.7175 23.0963 83.7175 22.3864Z" fill="#3E454C"></path><path d="M90.2517 14.5759C90.1393 14.5759 90.0289 14.5557 89.9216 14.5162C89.8142 14.4767 89.72 14.42 89.638 14.3471C89.556 14.2752 89.4901 14.185 89.4405 14.0777C89.3919 13.9693 89.3676 13.8478 89.3676 13.7121C89.3676 13.5673 89.399 13.4316 89.4628 13.306C89.5246 13.1794 89.6056 13.071 89.7038 12.9799C89.8031 12.8877 89.9135 12.8168 90.037 12.7652C90.1616 12.7136 90.2861 12.6882 90.4127 12.6882C90.7216 12.6882 90.9474 12.7743 91.0902 12.9445C91.233 13.1146 91.3039 13.3202 91.3039 13.5582C91.3039 13.7121 91.2735 13.8529 91.2128 13.9784C91.153 14.105 91.073 14.2124 90.9748 14.2995C90.8755 14.3856 90.7641 14.4534 90.6376 14.502C90.511 14.5516 90.3823 14.5759 90.2517 14.5759ZM88.7012 23.6289L89.8931 23.4811V17.7339L88.925 17.2214V16.787L90.8684 16.232L91.1854 16.3718V23.4811L92.3216 23.6289V24.2244H88.7012V23.6289Z" fill="#3E454C"></path><path d="M93.4015 17.242L92.7209 17.1093V16.3721H95.8087V17.1093L94.9459 17.2562L96.4832 21.0043L97.1425 23.0105L97.7876 21.0873L99.1284 17.2562L98.2301 17.1154V16.3721H101.03V17.1093L100.286 17.2633L97.4301 24.3938H96.4832L93.4015 17.242Z" fill="#3E454C"></path><path d="M106.939 19.5718C106.954 19.3328 106.957 19.0928 106.95 18.8518C106.943 18.6118 106.913 18.3819 106.862 18.1651C106.81 17.9474 106.732 17.7479 106.627 17.5676C106.521 17.3884 106.38 17.2415 106.201 17.1291C106.08 17.0501 105.943 16.9904 105.788 16.9509C105.634 16.9114 105.458 16.8922 105.263 16.8922C105 16.8922 104.746 16.9398 104.501 17.038C104.255 17.1372 104.035 17.2932 103.841 17.5089C103.646 17.7246 103.484 18.0011 103.354 18.3393C103.222 18.6796 103.138 19.0898 103.101 19.5718H106.939ZM101.747 20.3226C101.747 19.7241 101.841 19.1721 102.03 18.6658C102.221 18.1615 102.485 17.725 102.824 17.3553C103.162 16.9847 103.57 16.694 104.048 16.4803C104.525 16.2677 105.052 16.1542 105.627 16.1401C106.038 16.131 106.411 16.1907 106.743 16.3193C107.076 16.4479 107.358 16.6393 107.592 16.8925C107.826 17.1447 108.01 17.4526 108.142 17.8181C108.276 18.1827 108.353 18.5969 108.371 19.0597C108.38 19.3544 108.375 19.6096 108.353 19.8254C108.332 20.0401 108.31 20.2315 108.287 20.4006H103.086V20.4806C103.086 20.5069 103.088 20.5332 103.093 20.5616C103.113 21.1277 103.208 21.5956 103.381 21.9652C103.554 22.3359 103.771 22.6286 104.03 22.8453C104.291 23.063 104.577 23.2159 104.891 23.303C105.203 23.3891 105.51 23.4316 105.81 23.4316C105.992 23.4316 106.183 23.4215 106.385 23.3992C106.585 23.38 106.782 23.3486 106.97 23.3081C107.161 23.2686 107.336 23.223 107.498 23.1724C107.659 23.1207 107.788 23.0671 107.887 23.0114L108.146 23.6069C108.011 23.7284 107.834 23.8388 107.616 23.938C107.399 24.0352 107.162 24.1183 106.904 24.1871C106.647 24.254 106.378 24.3056 106.097 24.3411C105.817 24.3755 105.542 24.3937 105.276 24.3937C104.71 24.3937 104.209 24.2955 103.771 24.1021C103.333 23.9076 102.965 23.6352 102.665 23.2808C102.365 22.9273 102.139 22.502 101.981 21.9997C101.825 21.4994 101.747 20.9414 101.747 20.3226Z" fill="#3E454C"></path><path d="M113.494 23.6286L114.68 23.417V14.1404L113.522 14.0138V13.3252H117.192V14.0138L116.048 14.1323V18.5113H121.431V14.1323L120.273 14.0138V13.3252H123.923V14.0138L122.792 14.1323V23.417L124 23.6286V24.2241H120.224V23.6286L121.431 23.4251V19.3408H116.048V23.417L117.256 23.6286V24.2241H113.494V23.6286Z" fill="#3E454C"></path><path d="M129.065 23.6065C129.463 23.6167 129.8 23.5478 130.073 23.403C130.346 23.2582 130.568 23.0445 130.739 22.7609C130.91 22.4784 131.034 22.127 131.112 21.7077C131.189 21.2905 131.228 20.8094 131.228 20.2656C131.228 19.7926 131.186 19.3531 131.105 18.944C131.023 18.5338 130.894 18.1774 130.718 17.8735C130.543 17.5697 130.32 17.3297 130.052 17.1545C129.782 16.9783 129.463 16.8851 129.094 16.876C128.697 16.872 128.359 16.9408 128.079 17.0836C127.802 17.2264 127.573 17.435 127.396 17.7125C127.218 17.987 127.088 18.3252 127.007 18.7232C126.925 19.1202 126.884 19.5719 126.884 20.0772C126.884 20.5309 126.928 20.9684 127.017 21.3897C127.105 21.811 127.238 22.1837 127.417 22.5088C127.595 22.8328 127.821 23.0961 128.094 23.2936C128.368 23.4941 128.692 23.5964 129.065 23.6065ZM125.445 20.1392C125.454 19.5134 125.562 18.9523 125.771 18.4601C125.979 17.9659 126.254 17.5487 126.596 17.2064C126.937 16.8661 127.331 16.6028 127.778 16.4205C128.225 16.2393 128.692 16.1451 129.178 16.14C129.772 16.136 130.289 16.2393 130.729 16.4489C131.169 16.6595 131.533 16.9492 131.82 17.3148C132.108 17.6824 132.322 18.1138 132.462 18.61C132.603 19.1073 132.671 19.6369 132.666 20.203C132.662 20.8259 132.561 21.393 132.368 21.9085C132.173 22.4239 131.912 22.8645 131.581 23.2311C131.252 23.5987 130.865 23.8833 130.423 24.0878C129.981 24.2914 129.508 24.3927 129.003 24.3927C128.358 24.3927 127.808 24.2752 127.354 24.0423C126.899 23.8083 126.53 23.4944 126.245 23.1014C125.959 22.7085 125.753 22.2558 125.624 21.7434C125.496 21.231 125.435 20.6972 125.445 20.1392Z" fill="#3E454C"></path><path d="M134.329 23.6286L135.283 23.4737V17.768L134.287 17.2211V16.7857L136.154 16.2307L136.469 16.3715V17.3751C136.624 17.2394 136.811 17.1057 137.031 16.972C137.25 16.8383 137.485 16.7178 137.735 16.6105C137.986 16.5031 138.242 16.415 138.504 16.3482C138.766 16.2793 139.017 16.2408 139.255 16.2307C139.76 16.2135 140.169 16.2793 140.48 16.4312C140.791 16.5831 141.033 16.8495 141.206 17.2282C141.374 17.1016 141.573 16.9811 141.803 16.8626C142.031 16.7462 142.273 16.6429 142.526 16.5507C142.779 16.4596 143.033 16.3856 143.291 16.3299C143.548 16.2732 143.788 16.2408 144.013 16.2307C144.448 16.2175 144.815 16.2702 145.115 16.3927C145.414 16.5143 145.656 16.7117 145.837 16.9832C146.02 17.2535 146.151 17.605 146.231 18.0354C146.31 18.4658 146.35 18.9823 146.35 19.5858V23.4808L147.537 23.6286V24.2241H144.049V23.6286L145.003 23.4808V19.8309C145.003 19.3823 144.982 18.9924 144.94 18.6633C144.898 18.3331 144.814 18.0627 144.69 17.849C144.566 17.6353 144.394 17.4814 144.175 17.3822C143.955 17.2829 143.667 17.2414 143.311 17.2556C142.993 17.2698 142.677 17.3295 142.365 17.4358C142.051 17.5401 141.742 17.6789 141.438 17.8531C141.489 18.0769 141.529 18.3331 141.557 18.6207C141.585 18.9093 141.6 19.2071 141.6 19.515V23.4879L142.672 23.6286V24.2241H139.2V23.6286L140.252 23.4737V19.7195C140.252 19.2749 140.23 18.8931 140.185 18.5751C140.141 18.2561 140.055 17.9969 139.929 17.7954C139.802 17.5958 139.628 17.451 139.406 17.3639C139.184 17.2779 138.895 17.2414 138.54 17.2556C138.286 17.2698 137.998 17.3346 137.673 17.449C137.348 17.5645 137.007 17.7427 136.652 17.9857V19.2699C136.652 19.9768 136.65 20.6786 136.645 21.3753C136.64 22.0721 136.64 22.7739 136.645 23.4808L137.69 23.6286V24.2241H134.329V23.6286Z" fill="#3E454C"></path><path d="M153.782 19.5718C153.797 19.3328 153.8 19.0928 153.793 18.8518C153.786 18.6118 153.757 18.3819 153.705 18.1651C153.653 17.9474 153.575 17.7479 153.47 17.5676C153.365 17.3884 153.223 17.2415 153.045 17.1291C152.923 17.0501 152.786 16.9904 152.631 16.9509C152.478 16.9114 152.301 16.8922 152.106 16.8922C151.844 16.8922 151.589 16.9398 151.344 17.038C151.098 17.1372 150.878 17.2932 150.684 17.5089C150.49 17.7246 150.328 18.0011 150.197 18.3393C150.065 18.6796 149.981 19.0898 149.944 19.5718H153.782ZM148.59 20.3226C148.59 19.7241 148.684 19.1721 148.873 18.6658C149.064 18.1615 149.328 17.725 149.667 17.3553C150.006 16.9847 150.414 16.694 150.892 16.4803C151.369 16.2677 151.895 16.1542 152.471 16.1401C152.882 16.131 153.254 16.1907 153.587 16.3193C153.919 16.4479 154.201 16.6393 154.435 16.8925C154.669 17.1447 154.854 17.4526 154.985 17.8181C155.119 18.1827 155.196 18.5969 155.214 19.0597C155.223 19.3544 155.218 19.6096 155.196 19.8254C155.176 20.0401 155.153 20.2315 155.13 20.4006H149.93V20.4806C149.93 20.5069 149.932 20.5332 149.937 20.5616C149.956 21.1277 150.051 21.5956 150.224 21.9652C150.398 22.3359 150.614 22.6286 150.874 22.8453C151.134 23.063 151.42 23.2159 151.734 23.303C152.046 23.3891 152.353 23.4316 152.653 23.4316C152.835 23.4316 153.027 23.4215 153.228 23.3992C153.429 23.38 153.625 23.3486 153.813 23.3081C154.004 23.2686 154.179 23.223 154.341 23.1724C154.502 23.1207 154.632 23.0671 154.73 23.0114L154.989 23.6069C154.855 23.7284 154.677 23.8388 154.46 23.938C154.242 24.0352 154.005 24.1183 153.748 24.1871C153.49 24.254 153.221 24.3056 152.94 24.3411C152.66 24.3755 152.386 24.3937 152.119 24.3937C151.553 24.3937 151.052 24.2955 150.614 24.1021C150.176 23.9076 149.808 23.6352 149.508 23.2808C149.209 22.9273 148.982 22.502 148.824 21.9997C148.668 21.4994 148.59 20.9414 148.59 20.3226Z" fill="#3E454C"></path><path d="M157.101 22.189H157.726L157.999 23.0458C158.117 23.144 158.232 23.2291 158.347 23.303C158.461 23.3749 158.579 23.4336 158.697 23.4802C158.817 23.5278 158.944 23.5633 159.08 23.5896C159.216 23.6149 159.366 23.6311 159.529 23.6352C159.791 23.6443 160.033 23.625 160.252 23.5754C160.471 23.5258 160.662 23.4468 160.821 23.3374C160.98 23.227 161.103 23.0883 161.192 22.9192C161.282 22.7511 161.326 22.5495 161.326 22.3156C161.326 22.106 161.268 21.9257 161.154 21.7758C161.04 21.6249 160.888 21.4912 160.701 21.3717C160.514 21.2532 160.301 21.1429 160.063 21.0416C159.823 20.9423 159.58 20.8299 159.333 20.7094C159.057 20.5778 158.786 20.435 158.522 20.277C158.259 20.12 158.024 19.9458 157.82 19.7514C157.618 19.5559 157.455 19.3392 157.333 19.0951C157.21 18.8521 157.153 18.5736 157.158 18.2596C157.163 18.0166 157.205 17.7958 157.287 17.6004C157.369 17.4039 157.479 17.2287 157.618 17.0738C157.755 16.9198 157.915 16.7851 158.098 16.6707C158.28 16.5563 158.473 16.46 158.681 16.3831C158.887 16.3051 159.098 16.2474 159.316 16.2079C159.533 16.1684 159.746 16.1451 159.957 16.14C160.192 16.136 160.417 16.1461 160.634 16.1724C160.852 16.1977 161.056 16.2342 161.245 16.2808C161.435 16.3284 161.605 16.3821 161.758 16.4418C161.909 16.5036 162.039 16.5633 162.146 16.6251V18.126H161.551L161.249 17.3411C161.182 17.2702 161.111 17.2064 161.034 17.1467C160.958 17.09 160.871 17.0383 160.775 16.9927C160.679 16.9492 160.571 16.9117 160.449 16.8844C160.328 16.856 160.189 16.8429 160.034 16.8429C159.81 16.8429 159.604 16.8641 159.413 16.9087C159.225 16.9532 159.06 17.0221 158.919 17.1153C158.778 17.2095 158.668 17.331 158.586 17.4819C158.504 17.6307 158.46 17.811 158.456 18.0217C158.446 18.2313 158.498 18.4146 158.61 18.5726C158.722 18.7295 158.869 18.8703 159.053 18.9969C159.234 19.1235 159.443 19.242 159.68 19.3503C159.916 19.4617 160.158 19.5762 160.407 19.6987C160.664 19.8202 160.924 19.9458 161.188 20.0744C161.454 20.2031 161.691 20.354 161.901 20.5292C162.112 20.7054 162.283 20.9109 162.417 21.1479C162.551 21.3839 162.616 21.6654 162.616 21.9935C162.616 22.3905 162.537 22.7389 162.378 23.0397C162.219 23.3384 162.001 23.5886 161.722 23.7891C161.444 23.9906 161.119 24.1415 160.747 24.2418C160.374 24.3431 159.976 24.3937 159.551 24.3937C159.124 24.3937 158.699 24.3431 158.273 24.2418C157.847 24.1415 157.458 23.9927 157.101 23.7972V22.189Z" fill="#3E454C"></path><path d="M45.5717 33.7864C45.8006 33.6376 45.915 33.4026 45.915 33.0846C45.915 32.4608 45.4603 32.1499 44.5499 32.1499H42.7128V34.0102H44.5499C45.0026 34.0102 45.3428 33.9353 45.5717 33.7864ZM42.7128 29.7144V31.5029H44.3494C44.7595 31.5029 45.0755 31.4269 45.2963 31.276C45.517 31.1231 45.6274 30.9013 45.6274 30.6086C45.6274 30.316 45.517 30.0942 45.2963 29.9423C45.0755 29.7904 44.7595 29.7144 44.3494 29.7144H42.7128ZM46.4417 32.2493C46.628 32.4863 46.7212 32.7861 46.7212 33.1476C46.7212 33.6327 46.5389 34.0054 46.1743 34.2656C45.8097 34.5259 45.2791 34.6565 44.5813 34.6565H41.9148V29.0684H44.4223C45.0603 29.0684 45.5545 29.196 45.9029 29.4512C46.2513 29.7064 46.4255 30.0598 46.4255 30.5135C46.4255 30.8062 46.3576 31.0594 46.2229 31.272C46.0862 31.4847 45.9039 31.6467 45.676 31.7581C46.0001 31.8493 46.2553 32.0123 46.4417 32.2493Z" fill="#3E454C"></path><path d="M49.5718 34.0821C49.1566 33.6557 48.949 33.0441 48.949 32.246V29.0681H49.747V32.2136C49.747 33.4117 50.2716 34.0102 51.3208 34.0102C51.8312 34.0102 52.2231 33.8623 52.4945 33.5666C52.7659 33.2709 52.9016 32.8202 52.9016 32.2136V29.0681H53.6764V32.246C53.6764 33.0491 53.4687 33.6628 53.0535 34.0861C52.6373 34.5095 52.058 34.7211 51.3127 34.7211C50.5673 34.7211 49.987 34.5074 49.5718 34.0821Z" fill="#3E454C"></path><mask id="mask0_255_1850" maskUnits="userSpaceOnUse" x="0" y="0" width="164" height="46"><path d="M0 46H163.477V0H0V46Z" fill="white"></path></mask><g mask="url(#mask0_255_1850)"><path d="M56.3507 34.6573H57.1498V29.0681H56.3507V34.6573Z" fill="#3E454C"></path><path d="M59.8635 29.0681H60.6626V33.9626H63.6886V34.6573H59.8635V29.0681Z" fill="#3E454C"></path><path d="M67.952 33.9626C68.4047 33.9626 68.8027 33.8745 69.146 33.6983C69.4894 33.5231 69.7537 33.277 69.94 32.96C70.1264 32.643 70.2195 32.2774 70.2195 31.8622C70.2195 31.447 70.1264 31.0804 69.94 30.7644C69.7537 30.4474 69.4894 30.2013 69.146 30.0251C68.8027 29.8499 68.4047 29.7628 67.952 29.7628H66.4431V33.9626H67.952ZM65.644 29.0681H67.9996C68.5911 29.0681 69.1146 29.1846 69.5734 29.4195C70.0301 29.6535 70.3856 29.9816 70.6388 30.4049C70.8909 30.8282 71.0175 31.3143 71.0175 31.8622C71.0175 32.4111 70.8909 32.8962 70.6388 33.3195C70.3856 33.7428 70.0301 34.071 69.5734 34.3059C69.1146 34.5398 68.5911 34.6573 67.9996 34.6573H65.644V29.0681Z" fill="#3E454C"></path><path d="M73.2773 34.6573H74.0763V29.0681H73.2773V34.6573Z" fill="#3E454C"></path><path d="M81.5971 29.0681V34.6573H80.9429L77.5888 30.489V34.6573H76.7908V29.0681H77.445L80.8001 33.2355V29.0681H81.5971Z" fill="#3E454C"></path><path d="M88.1847 31.8307H88.9514V34.01C88.6739 34.2399 88.3529 34.4151 87.9862 34.5377C87.6176 34.6602 87.2358 34.721 86.8358 34.721C86.2707 34.721 85.7623 34.5964 85.3106 34.3493C84.858 34.1022 84.5025 33.7619 84.2442 33.3285C83.986 32.894 83.8584 32.4049 83.8584 31.862C83.8584 31.3192 83.986 30.8301 84.2442 30.3936C84.5025 29.9571 84.86 29.6158 85.3147 29.3708C85.7694 29.1267 86.2818 29.0042 86.852 29.0042C87.2986 29.0042 87.7047 29.0771 88.0693 29.2239C88.4339 29.3697 88.7438 29.5844 89 29.867L88.5037 30.3612C88.0571 29.9308 87.5174 29.7151 86.8834 29.7151C86.4581 29.7151 86.0763 29.8062 85.738 29.9905C85.3998 30.1738 85.1344 30.429 84.944 30.7562C84.7516 31.0843 84.6564 31.4529 84.6564 31.862C84.6564 32.2671 84.7516 32.6327 84.944 32.9598C85.1344 33.2869 85.3998 33.5442 85.738 33.7305C86.0763 33.9179 86.455 34.01 86.8753 34.01C87.3756 34.01 87.8131 33.8905 88.1847 33.6515V31.8307Z" fill="#3E454C"></path><path d="M97.0075 33.9626C97.4591 33.9626 97.8581 33.8745 98.2015 33.6983C98.5448 33.5231 98.8091 33.277 98.9954 32.96C99.1818 32.643 99.2749 32.2774 99.2749 31.8622C99.2749 31.447 99.1818 31.0804 98.9954 30.7644C98.8091 30.4474 98.5448 30.2013 98.2015 30.0251C97.8581 29.8499 97.4591 29.7628 97.0075 29.7628H95.4985V33.9626H97.0075ZM94.7004 29.0681H97.055C97.6464 29.0681 98.17 29.1846 98.6288 29.4195C99.0865 29.6535 99.441 29.9816 99.6942 30.4049C99.9463 30.8282 100.073 31.3143 100.073 31.8622C100.073 32.4111 99.9463 32.8962 99.6942 33.3195C99.441 33.7428 99.0865 34.071 98.6288 34.3059C98.17 34.5398 97.6464 34.6573 97.055 34.6573H94.7004V29.0681Z" fill="#3E454C"></path><path d="M102.333 34.6573H103.131V29.0681H102.333V34.6573Z" fill="#3E454C"></path><path d="M106.257 34.5255C105.866 34.3949 105.56 34.2257 105.336 34.0181L105.631 33.3953C105.844 33.5867 106.117 33.7437 106.449 33.8632C106.783 33.9827 107.123 34.0414 107.476 34.0414C107.938 34.0414 108.285 33.9634 108.514 33.8065C108.742 33.6495 108.856 33.4409 108.856 33.1796C108.856 32.9882 108.794 32.8322 108.67 32.7127C108.544 32.5932 108.389 32.5011 108.206 32.4373C108.022 32.3735 107.762 32.3016 107.427 32.2226C107.007 32.1203 106.667 32.019 106.409 31.9188C106.152 31.8175 105.93 31.6615 105.747 31.4519C105.563 31.2412 105.471 30.9577 105.471 30.6012C105.471 30.3025 105.55 30.0331 105.706 29.7941C105.863 29.5551 106.102 29.3627 106.421 29.2199C106.741 29.0761 107.137 29.0042 107.611 29.0042C107.941 29.0042 108.265 29.0467 108.586 29.1318C108.905 29.2168 109.179 29.3394 109.407 29.4994L109.145 30.1374C108.91 29.9895 108.659 29.8751 108.393 29.7981C108.128 29.7212 107.866 29.6827 107.611 29.6827C107.159 29.6827 106.819 29.7657 106.593 29.9308C106.367 30.0949 106.253 30.3085 106.253 30.5688C106.253 30.7602 106.318 30.9172 106.446 31.0367C106.573 31.1562 106.731 31.2494 106.921 31.3152C107.11 31.382 107.366 31.4529 107.691 31.5268C108.112 31.6291 108.45 31.7294 108.705 31.8307C108.96 31.9309 109.18 32.0859 109.363 32.2935C109.548 32.5011 109.64 32.7806 109.64 33.132C109.64 33.4247 109.56 33.692 109.4 33.9341C109.24 34.1761 108.998 34.3685 108.674 34.5093C108.348 34.6501 107.95 34.721 107.476 34.721C107.054 34.721 106.649 34.6561 106.257 34.5255Z" fill="#3E454C"></path><path d="M112.873 29.7626H110.956V29.0679H115.58V29.7626H113.663V34.6571H112.873V29.7626Z" fill="#3E454C"></path><path d="M117.489 34.6573H118.287V29.0681H117.489V34.6573Z" fill="#3E454C"></path><path d="M125.808 29.0681V34.6573H125.153L121.799 30.489V34.6573H121.001V29.0681H121.655L125.01 33.2355V29.0681H125.808Z" fill="#3E454C"></path><path d="M129.508 34.3493C129.059 34.1022 128.705 33.7619 128.45 33.3275C128.195 32.894 128.067 32.4049 128.067 31.862C128.067 31.3192 128.195 30.8311 128.45 30.3977C128.705 29.9632 129.06 29.6229 129.513 29.3748C129.964 29.1277 130.471 29.0042 131.03 29.0042C131.466 29.0042 131.865 29.0771 132.228 29.2229C132.589 29.3697 132.898 29.5865 133.153 29.8741L132.635 30.3774C132.213 29.9359 131.689 29.7151 131.061 29.7151C130.646 29.7151 130.271 29.8083 129.936 29.9936C129.601 30.1809 129.337 30.4371 129.149 30.7643C128.96 31.0914 128.865 31.458 128.865 31.862C128.865 32.2661 128.96 32.6327 129.149 32.9598C129.337 33.2869 129.601 33.5442 129.936 33.7305C130.271 33.9169 130.646 34.01 131.061 34.01C131.684 34.01 132.208 33.7862 132.635 33.3396L133.153 33.8429C132.898 34.1295 132.587 34.3483 132.224 34.4971C131.858 34.646 131.458 34.721 131.021 34.721C130.462 34.721 129.958 34.5964 129.508 34.3493Z" fill="#3E454C"></path><path d="M136.379 29.7626H134.462V29.0679H139.086V29.7626H137.169V34.6571H136.379V29.7626Z" fill="#3E454C"></path><path d="M140.995 34.6573H141.793V29.0681H140.995V34.6573Z" fill="#3E454C"></path><path d="M148.136 33.7298C148.463 33.5435 148.721 33.2872 148.911 32.9591C149.099 32.632 149.194 32.2664 149.194 31.8613C149.194 31.4573 149.099 31.0917 148.911 30.7635C148.721 30.4364 148.463 30.1802 148.136 29.9939C147.809 29.8075 147.44 29.7144 147.03 29.7144C146.62 29.7144 146.249 29.8075 145.917 29.9939C145.583 30.1802 145.323 30.4364 145.133 30.7635C144.945 31.0917 144.851 31.4573 144.851 31.8613C144.851 32.2664 144.945 32.632 145.133 32.9591C145.323 33.2872 145.583 33.5435 145.917 33.7298C146.249 33.9172 146.62 34.0093 147.03 34.0093C147.44 34.0093 147.809 33.9172 148.136 33.7298ZM145.505 34.3486C145.052 34.1015 144.697 33.7592 144.44 33.3237C144.181 32.8862 144.053 32.4001 144.053 31.8613C144.053 31.3246 144.181 30.8375 144.44 30.401C144.697 29.9645 145.052 29.6222 145.505 29.3741C145.958 29.127 146.466 29.0034 147.03 29.0034C147.589 29.0034 148.095 29.127 148.547 29.3741C149 29.6222 149.353 29.9625 149.61 30.3969C149.865 30.8314 149.992 31.3185 149.992 31.8613C149.992 32.4041 149.865 32.8933 149.61 33.3277C149.353 33.7612 149 34.1015 148.547 34.3486C148.095 34.5957 147.589 34.7212 147.03 34.7212C146.466 34.7212 145.958 34.5957 145.505 34.3486Z" fill="#3E454C"></path><path d="M157.059 29.0681V34.6573H156.404L153.05 30.489V34.6573H152.252V29.0681H152.906L156.261 33.2355V29.0681H157.059Z" fill="#3E454C"></path><path d="M40.6926 23.6286L41.8785 23.417V14.1404L40.72 14.0138V13.3252H48.0045L48.208 15.3334H47.4363L47.1133 14.1546L43.2396 14.0635V18.1538L45.8504 18.1052L46.0611 17.0034H46.7771V20.0203H46.0611L45.8504 18.9468L43.2396 18.9053V23.4666L47.408 23.3339L48.1098 21.8796L48.7914 22.0488L48.4754 24.2241H40.6926V23.6286Z" fill="#3E454C"></path><path d="M49.2752 23.6287L50.3284 23.4738L52.6647 20.4204L50.2231 17.2415L49.261 17.1149V16.3716H52.7772V17.1149L51.8019 17.2415L53.1701 19.2558L53.5073 19.7672L53.7878 19.2771L55.1773 17.2213L54.1808 17.1149V16.3716H57.3455V17.1149L56.2579 17.2486L53.9701 20.2452L56.4827 23.488L57.4012 23.6287V24.2242H53.9276V23.6287L54.8968 23.4809C54.7185 23.2135 54.5646 22.9877 54.4329 22.8003C54.3023 22.613 54.1909 22.455 54.0998 22.3264C54.0086 22.1978 53.9337 22.0945 53.8749 22.0175C53.8162 21.9405 53.7696 21.8777 53.7352 21.8322C53.6997 21.7856 53.6724 21.7512 53.6542 21.7299C53.6359 21.7086 53.6218 21.6884 53.6126 21.6701L53.1205 20.9754L52.8258 21.5081L51.4505 23.4809L52.7204 23.6287V24.2242H49.2752V23.6287Z" fill="#3E454C"></path><path d="M63.3246 19.5718C63.3387 19.3328 63.3418 19.0928 63.3347 18.8518C63.3276 18.6118 63.2993 18.3819 63.2476 18.1651C63.196 17.9474 63.117 17.7479 63.0116 17.5676C62.9073 17.3884 62.7655 17.2415 62.5873 17.1291C62.4658 17.0501 62.3281 16.9904 62.1741 16.9509C62.0192 16.9114 61.844 16.8922 61.6475 16.8922C61.3852 16.8922 61.131 16.9398 60.8859 17.038C60.6409 17.1372 60.4201 17.2932 60.2256 17.5089C60.0322 17.7246 59.8692 18.0011 59.7385 18.3393C59.6079 18.6796 59.5238 19.0898 59.4853 19.5718H63.3246ZM58.1313 20.3226C58.1313 19.7241 58.2265 19.1721 58.4159 18.6658C58.6053 18.1615 58.8696 17.725 59.2089 17.3553C59.5481 16.9847 59.9563 16.694 60.4333 16.4803C60.9103 16.2677 61.4369 16.1542 62.0121 16.1401C62.4243 16.131 62.7959 16.1907 63.1281 16.3193C63.4603 16.4479 63.7438 16.6393 63.9778 16.8925C64.2107 17.1447 64.395 17.4526 64.5277 17.8181C64.6614 18.1827 64.7373 18.5969 64.7566 19.0597C64.7657 19.3544 64.7596 19.6096 64.7383 19.8254C64.7171 20.0401 64.6958 20.2315 64.6725 20.4006H59.4722V20.4806C59.4722 20.5069 59.4742 20.5332 59.4793 20.5616C59.4975 21.1277 59.5937 21.5956 59.7669 21.9652C59.9401 22.3359 60.1558 22.6286 60.416 22.8453C60.6753 23.063 60.9619 23.2159 61.2758 23.303C61.5888 23.3891 61.8956 23.4316 62.1944 23.4316C62.3767 23.4316 62.5691 23.4215 62.7706 23.3992C62.9711 23.38 63.1666 23.3486 63.356 23.3081C63.5454 23.2686 63.7216 23.223 63.8826 23.1724C64.0436 23.1207 64.1732 23.0671 64.2725 23.0114L64.5317 23.6069C64.396 23.7284 64.2188 23.8388 64.0011 23.938C63.7844 24.0352 63.5464 24.1183 63.2891 24.1871C63.0319 24.254 62.7635 24.3056 62.482 24.3411C62.2015 24.3755 61.928 24.3937 61.6617 24.3937C61.0956 24.3937 60.5933 24.2955 60.1558 24.1021C59.7183 23.9076 59.3507 23.6352 59.0509 23.2808C58.7511 22.9273 58.5233 22.502 58.3663 21.9997C58.2093 21.4994 58.1313 20.9414 58.1313 20.3226Z" fill="#3E454C"></path><path d="M66.2015 20.4488C66.1975 19.8027 66.2927 19.2204 66.4892 18.7009C66.6856 18.1824 66.956 17.7378 67.2993 17.3682C67.6437 16.9985 68.0487 16.7119 68.5136 16.5043C68.9794 16.2987 69.4807 16.1843 70.0195 16.162C70.216 16.1559 70.4155 16.16 70.619 16.1711C70.8226 16.1833 71.014 16.2045 71.1943 16.2349C71.3745 16.2643 71.5396 16.3038 71.6895 16.3504C71.8394 16.397 71.9609 16.4516 72.0541 16.5114V18.1955H71.3877L71.0302 17.3114C70.9552 17.2517 70.8682 17.2 70.7699 17.1575C70.6717 17.115 70.5714 17.0805 70.4681 17.0522C70.3648 17.0238 70.2625 17.0046 70.1593 16.9924C70.057 16.9803 69.9628 16.9742 69.8787 16.9742C69.5658 16.9742 69.266 17.034 68.9804 17.1504C68.6949 17.2669 68.4427 17.4441 68.2229 17.6811C68.0032 17.916 67.827 18.2138 67.6963 18.5713C67.5657 18.9288 67.4978 19.35 67.4928 19.8311C67.4887 20.4681 67.5626 21.0129 67.7176 21.4666C67.8715 21.9193 68.073 22.291 68.3212 22.5786C68.5683 22.8672 68.8447 23.0769 69.1496 23.2105C69.4534 23.3432 69.7521 23.4111 70.0468 23.4111C70.2301 23.4111 70.4195 23.3989 70.616 23.3756C70.8125 23.3513 71.0018 23.3219 71.1841 23.2845C71.3664 23.247 71.5355 23.2014 71.6895 23.1477C71.8434 23.0931 71.97 23.0394 72.0682 22.9817L72.3072 23.6065C72.1715 23.728 72.0034 23.8364 71.8019 23.9296C71.6004 24.0227 71.3796 24.1027 71.1386 24.1686C70.8975 24.2334 70.6454 24.284 70.38 24.3185C70.1167 24.3539 69.8514 24.3721 69.584 24.3721C69.0412 24.3721 68.5622 24.2729 68.145 24.0774C67.7287 23.881 67.3773 23.6065 67.0887 23.2561C66.8021 22.9047 66.5823 22.4895 66.4335 22.0105C66.2836 21.5304 66.2056 21.0099 66.2015 20.4488Z" fill="#3E454C"></path><path d="M74.2997 17.3685L73.5767 17.1578V16.617L75.3803 16.2312L75.6264 16.3578V21.1925C75.6264 21.5814 75.6477 21.9146 75.6892 22.1931C75.7317 22.4716 75.8087 22.7015 75.9211 22.8807C76.0325 23.061 76.1875 23.1937 76.3839 23.2807C76.5804 23.3678 76.8326 23.4114 77.1414 23.4114C77.3521 23.4114 77.5597 23.381 77.7622 23.3223C77.9668 23.2645 78.1562 23.1937 78.3314 23.1126C78.5066 23.0306 78.6595 22.9445 78.7912 22.8534C78.9218 22.7612 79.018 22.6832 79.0788 22.6184V17.4313L78.2018 17.2065V16.6312L80.208 16.2312L80.4054 16.3507V23.6291H81.247V24.1608C81.1771 24.1983 81.091 24.2347 80.9877 24.2692C80.8844 24.3056 80.7731 24.337 80.6546 24.3644C80.5351 24.3937 80.4135 24.416 80.29 24.4363C80.1654 24.4535 80.0469 24.4636 79.9345 24.4636C79.7097 24.4636 79.5335 24.415 79.4059 24.3188C79.2773 24.2246 79.2124 24.0697 79.2124 23.86V23.2848C78.8053 23.6392 78.378 23.9096 77.9314 24.095C77.4847 24.2793 77.0483 24.3725 76.6219 24.3725C76.071 24.3725 75.6406 24.2864 75.3317 24.1152C75.0228 23.9451 74.7919 23.7091 74.64 23.4073C74.4881 23.1045 74.3949 22.7481 74.3595 22.3369C74.324 21.9257 74.3038 21.4771 74.2997 20.99V17.3685Z" fill="#3E454C"></path><path d="M83.7175 22.3864C83.7175 21.5245 83.7185 20.6698 83.7216 19.8211C83.7236 18.9725 83.7246 18.1167 83.7246 17.2559H82.6511V16.7293C82.8567 16.6777 83.0289 16.6372 83.1666 16.6068C83.3053 16.5774 83.4198 16.542 83.5109 16.5015C83.6021 16.462 83.678 16.4113 83.7388 16.3506C83.7995 16.2898 83.8563 16.2017 83.9069 16.0842C83.9403 16.0042 83.9808 15.8867 84.0304 15.7328C84.0791 15.5779 84.1256 15.4209 84.1702 15.2599C84.2148 15.0978 84.2532 14.9449 84.2867 14.8031C84.3191 14.6603 84.3393 14.5591 84.3495 14.4983H85.0442V16.3718H87.4028V17.2559H85.0442V20.7923C85.0442 21.3362 85.0513 21.7767 85.0654 22.115C85.0796 22.4542 85.1141 22.7206 85.1708 22.913C85.2265 23.1044 85.3085 23.234 85.4158 23.3019C85.5232 23.3697 85.6741 23.4031 85.8655 23.4031C85.982 23.4031 86.1116 23.391 86.2544 23.3687C86.3972 23.3444 86.5349 23.3171 86.6686 23.2847C86.8023 23.2512 86.9248 23.2148 87.0372 23.1753C87.1496 23.1358 87.2337 23.0963 87.2894 23.0588L87.5071 23.6766C87.3998 23.7951 87.257 23.8973 87.0787 23.9855C86.9015 24.0746 86.7081 24.1495 86.5005 24.2103C86.2919 24.271 86.0842 24.3166 85.8756 24.347C85.668 24.3784 85.4837 24.3926 85.3247 24.3926C84.8153 24.3926 84.4193 24.2356 84.1388 23.9237C83.8583 23.6087 83.7175 23.0963 83.7175 22.3864Z" fill="#3E454C"></path><path d="M90.2517 14.5759C90.1393 14.5759 90.0289 14.5557 89.9216 14.5162C89.8142 14.4767 89.72 14.42 89.638 14.3471C89.556 14.2752 89.4901 14.185 89.4405 14.0777C89.3919 13.9693 89.3676 13.8478 89.3676 13.7121C89.3676 13.5673 89.399 13.4316 89.4628 13.306C89.5246 13.1794 89.6056 13.071 89.7038 12.9799C89.8031 12.8877 89.9135 12.8168 90.037 12.7652C90.1616 12.7136 90.2861 12.6882 90.4127 12.6882C90.7216 12.6882 90.9474 12.7743 91.0902 12.9445C91.233 13.1146 91.3039 13.3202 91.3039 13.5582C91.3039 13.7121 91.2735 13.8529 91.2128 13.9784C91.153 14.105 91.073 14.2124 90.9748 14.2995C90.8755 14.3856 90.7641 14.4534 90.6376 14.502C90.511 14.5516 90.3823 14.5759 90.2517 14.5759ZM88.7012 23.6289L89.8931 23.4811V17.7339L88.925 17.2214V16.787L90.8684 16.232L91.1854 16.3718V23.4811L92.3216 23.6289V24.2244H88.7012V23.6289Z" fill="#3E454C"></path><path d="M93.4015 17.242L92.7209 17.1093V16.3721H95.8087V17.1093L94.9459 17.2562L96.4832 21.0043L97.1425 23.0105L97.7876 21.0873L99.1284 17.2562L98.2301 17.1154V16.3721H101.03V17.1093L100.286 17.2633L97.4301 24.3938H96.4832L93.4015 17.242Z" fill="#3E454C"></path><path d="M106.939 19.5718C106.954 19.3328 106.957 19.0928 106.95 18.8518C106.943 18.6118 106.913 18.3819 106.862 18.1651C106.81 17.9474 106.732 17.7479 106.627 17.5676C106.521 17.3884 106.38 17.2415 106.201 17.1291C106.08 17.0501 105.943 16.9904 105.788 16.9509C105.634 16.9114 105.458 16.8922 105.263 16.8922C105 16.8922 104.746 16.9398 104.501 17.038C104.255 17.1372 104.035 17.2932 103.841 17.5089C103.646 17.7246 103.484 18.0011 103.354 18.3393C103.222 18.6796 103.138 19.0898 103.101 19.5718H106.939ZM101.747 20.3226C101.747 19.7241 101.841 19.1721 102.03 18.6658C102.221 18.1615 102.485 17.725 102.824 17.3553C103.162 16.9847 103.57 16.694 104.048 16.4803C104.525 16.2677 105.052 16.1542 105.627 16.1401C106.038 16.131 106.411 16.1907 106.743 16.3193C107.076 16.4479 107.358 16.6393 107.592 16.8925C107.826 17.1447 108.01 17.4526 108.142 17.8181C108.276 18.1827 108.353 18.5969 108.371 19.0597C108.38 19.3544 108.375 19.6096 108.353 19.8254C108.332 20.0401 108.31 20.2315 108.287 20.4006H103.086V20.4806C103.086 20.5069 103.088 20.5332 103.093 20.5616C103.113 21.1277 103.208 21.5956 103.381 21.9652C103.554 22.3359 103.771 22.6286 104.03 22.8453C104.291 23.063 104.577 23.2159 104.891 23.303C105.203 23.3891 105.51 23.4316 105.81 23.4316C105.992 23.4316 106.183 23.4215 106.385 23.3992C106.585 23.38 106.782 23.3486 106.97 23.3081C107.161 23.2686 107.336 23.223 107.498 23.1724C107.659 23.1207 107.788 23.0671 107.887 23.0114L108.146 23.6069C108.011 23.7284 107.834 23.8388 107.616 23.938C107.399 24.0352 107.162 24.1183 106.904 24.1871C106.647 24.254 106.378 24.3056 106.097 24.3411C105.817 24.3755 105.542 24.3937 105.276 24.3937C104.71 24.3937 104.209 24.2955 103.771 24.1021C103.333 23.9076 102.965 23.6352 102.665 23.2808C102.365 22.9273 102.139 22.502 101.981 21.9997C101.825 21.4994 101.747 20.9414 101.747 20.3226Z" fill="#3E454C"></path><path d="M113.494 23.6286L114.68 23.417V14.1404L113.522 14.0138V13.3252H117.192V14.0138L116.048 14.1323V18.5113H121.431V14.1323L120.273 14.0138V13.3252H123.923V14.0138L122.792 14.1323V23.417L124 23.6286V24.2241H120.224V23.6286L121.431 23.4251V19.3408H116.048V23.417L117.256 23.6286V24.2241H113.494V23.6286Z" fill="#3E454C"></path><path d="M129.065 23.6065C129.463 23.6167 129.8 23.5478 130.073 23.403C130.346 23.2582 130.568 23.0445 130.739 22.7609C130.91 22.4784 131.034 22.127 131.112 21.7077C131.189 21.2905 131.228 20.8094 131.228 20.2656C131.228 19.7926 131.186 19.3531 131.105 18.944C131.023 18.5338 130.894 18.1774 130.718 17.8735C130.543 17.5697 130.32 17.3297 130.052 17.1545C129.782 16.9783 129.463 16.8851 129.094 16.876C128.697 16.872 128.359 16.9408 128.079 17.0836C127.802 17.2264 127.573 17.435 127.396 17.7125C127.218 17.987 127.088 18.3252 127.007 18.7232C126.925 19.1202 126.884 19.5719 126.884 20.0772C126.884 20.5309 126.928 20.9684 127.017 21.3897C127.105 21.811 127.238 22.1837 127.417 22.5088C127.595 22.8328 127.821 23.0961 128.094 23.2936C128.368 23.4941 128.692 23.5964 129.065 23.6065ZM125.445 20.1392C125.454 19.5134 125.562 18.9523 125.771 18.4601C125.979 17.9659 126.254 17.5487 126.596 17.2064C126.937 16.8661 127.331 16.6028 127.778 16.4205C128.225 16.2393 128.692 16.1451 129.178 16.14C129.772 16.136 130.289 16.2393 130.729 16.4489C131.169 16.6595 131.533 16.9492 131.82 17.3148C132.108 17.6824 132.322 18.1138 132.462 18.61C132.603 19.1073 132.671 19.6369 132.666 20.203C132.662 20.8259 132.561 21.393 132.368 21.9085C132.173 22.4239 131.912 22.8645 131.581 23.2311C131.252 23.5987 130.865 23.8833 130.423 24.0878C129.981 24.2914 129.508 24.3927 129.003 24.3927C128.358 24.3927 127.808 24.2752 127.354 24.0423C126.899 23.8083 126.53 23.4944 126.245 23.1014C125.959 22.7085 125.753 22.2558 125.624 21.7434C125.496 21.231 125.435 20.6972 125.445 20.1392Z" fill="#3E454C"></path><path d="M134.329 23.6286L135.283 23.4737V17.768L134.287 17.2211V16.7857L136.154 16.2307L136.469 16.3715V17.3751C136.624 17.2394 136.811 17.1057 137.031 16.972C137.25 16.8383 137.485 16.7178 137.735 16.6105C137.986 16.5031 138.242 16.415 138.504 16.3482C138.766 16.2793 139.017 16.2408 139.255 16.2307C139.76 16.2135 140.169 16.2793 140.48 16.4312C140.791 16.5831 141.033 16.8495 141.206 17.2282C141.374 17.1016 141.573 16.9811 141.803 16.8626C142.031 16.7462 142.273 16.6429 142.526 16.5507C142.779 16.4596 143.033 16.3856 143.291 16.3299C143.548 16.2732 143.788 16.2408 144.013 16.2307C144.448 16.2175 144.815 16.2702 145.115 16.3927C145.414 16.5143 145.656 16.7117 145.837 16.9832C146.02 17.2535 146.151 17.605 146.231 18.0354C146.31 18.4658 146.35 18.9823 146.35 19.5858V23.4808L147.537 23.6286V24.2241H144.049V23.6286L145.003 23.4808V19.8309C145.003 19.3823 144.982 18.9924 144.94 18.6633C144.898 18.3331 144.814 18.0627 144.69 17.849C144.566 17.6353 144.394 17.4814 144.175 17.3822C143.955 17.2829 143.667 17.2414 143.311 17.2556C142.993 17.2698 142.677 17.3295 142.365 17.4358C142.051 17.5401 141.742 17.6789 141.438 17.8531C141.489 18.0769 141.529 18.3331 141.557 18.6207C141.585 18.9093 141.6 19.2071 141.6 19.515V23.4879L142.672 23.6286V24.2241H139.2V23.6286L140.252 23.4737V19.7195C140.252 19.2749 140.23 18.8931 140.185 18.5751C140.141 18.2561 140.055 17.9969 139.929 17.7954C139.802 17.5958 139.628 17.451 139.406 17.3639C139.184 17.2779 138.895 17.2414 138.54 17.2556C138.286 17.2698 137.998 17.3346 137.673 17.449C137.348 17.5645 137.007 17.7427 136.652 17.9857V19.2699C136.652 19.9768 136.65 20.6786 136.645 21.3753C136.64 22.0721 136.64 22.7739 136.645 23.4808L137.69 23.6286V24.2241H134.329V23.6286Z" fill="#3E454C"></path><path d="M153.782 19.5718C153.797 19.3328 153.8 19.0928 153.793 18.8518C153.786 18.6118 153.757 18.3819 153.705 18.1651C153.653 17.9474 153.575 17.7479 153.47 17.5676C153.365 17.3884 153.223 17.2415 153.045 17.1291C152.923 17.0501 152.786 16.9904 152.631 16.9509C152.478 16.9114 152.301 16.8922 152.106 16.8922C151.844 16.8922 151.589 16.9398 151.344 17.038C151.098 17.1372 150.878 17.2932 150.684 17.5089C150.49 17.7246 150.328 18.0011 150.197 18.3393C150.065 18.6796 149.981 19.0898 149.944 19.5718H153.782ZM148.59 20.3226C148.59 19.7241 148.684 19.1721 148.873 18.6658C149.064 18.1615 149.328 17.725 149.667 17.3553C150.006 16.9847 150.414 16.694 150.892 16.4803C151.369 16.2677 151.895 16.1542 152.471 16.1401C152.882 16.131 153.254 16.1907 153.587 16.3193C153.919 16.4479 154.201 16.6393 154.435 16.8925C154.669 17.1447 154.854 17.4526 154.985 17.8181C155.119 18.1827 155.196 18.5969 155.214 19.0597C155.223 19.3544 155.218 19.6096 155.196 19.8254C155.176 20.0401 155.153 20.2315 155.13 20.4006H149.93V20.4806C149.93 20.5069 149.932 20.5332 149.937 20.5616C149.956 21.1277 150.051 21.5956 150.224 21.9652C150.398 22.3359 150.614 22.6286 150.874 22.8453C151.134 23.063 151.42 23.2159 151.734 23.303C152.046 23.3891 152.353 23.4316 152.653 23.4316C152.835 23.4316 153.027 23.4215 153.228 23.3992C153.429 23.38 153.625 23.3486 153.813 23.3081C154.004 23.2686 154.179 23.223 154.341 23.1724C154.502 23.1207 154.632 23.0671 154.73 23.0114L154.989 23.6069C154.855 23.7284 154.677 23.8388 154.46 23.938C154.242 24.0352 154.005 24.1183 153.748 24.1871C153.49 24.254 153.221 24.3056 152.94 24.3411C152.66 24.3755 152.386 24.3937 152.119 24.3937C151.553 24.3937 151.052 24.2955 150.614 24.1021C150.176 23.9076 149.808 23.6352 149.508 23.2808C149.209 22.9273 148.982 22.502 148.824 21.9997C148.668 21.4994 148.59 20.9414 148.59 20.3226Z" fill="#3E454C"></path><path d="M157.101 22.189H157.726L157.999 23.0458C158.117 23.144 158.232 23.2291 158.347 23.303C158.461 23.3749 158.579 23.4336 158.697 23.4802C158.817 23.5278 158.944 23.5633 159.08 23.5896C159.216 23.6149 159.366 23.6311 159.529 23.6352C159.791 23.6443 160.033 23.625 160.252 23.5754C160.471 23.5258 160.662 23.4468 160.821 23.3374C160.98 23.227 161.103 23.0883 161.192 22.9192C161.282 22.7511 161.326 22.5495 161.326 22.3156C161.326 22.106 161.268 21.9257 161.154 21.7758C161.04 21.6249 160.888 21.4912 160.701 21.3717C160.514 21.2532 160.301 21.1429 160.063 21.0416C159.823 20.9423 159.58 20.8299 159.333 20.7094C159.057 20.5778 158.786 20.435 158.522 20.277C158.259 20.12 158.024 19.9458 157.82 19.7514C157.618 19.5559 157.455 19.3392 157.333 19.0951C157.21 18.8521 157.153 18.5736 157.158 18.2596C157.163 18.0166 157.205 17.7958 157.287 17.6004C157.369 17.4039 157.479 17.2287 157.618 17.0738C157.755 16.9198 157.915 16.7851 158.098 16.6707C158.28 16.5563 158.473 16.46 158.681 16.3831C158.887 16.3051 159.098 16.2474 159.316 16.2079C159.533 16.1684 159.746 16.1451 159.957 16.14C160.192 16.136 160.417 16.1461 160.634 16.1724C160.852 16.1977 161.056 16.2342 161.245 16.2808C161.435 16.3284 161.605 16.3821 161.758 16.4418C161.909 16.5036 162.039 16.5633 162.146 16.6251V18.126H161.551L161.249 17.3411C161.182 17.2702 161.111 17.2064 161.034 17.1467C160.958 17.09 160.871 17.0383 160.775 16.9927C160.679 16.9492 160.571 16.9117 160.449 16.8844C160.328 16.856 160.189 16.8429 160.034 16.8429C159.81 16.8429 159.604 16.8641 159.413 16.9087C159.225 16.9532 159.06 17.0221 158.919 17.1153C158.778 17.2095 158.668 17.331 158.586 17.4819C158.504 17.6307 158.46 17.811 158.456 18.0217C158.446 18.2313 158.498 18.4146 158.61 18.5726C158.722 18.7295 158.869 18.8703 159.053 18.9969C159.234 19.1235 159.443 19.242 159.68 19.3503C159.916 19.4617 160.158 19.5762 160.407 19.6987C160.664 19.8202 160.924 19.9458 161.188 20.0744C161.454 20.2031 161.691 20.354 161.901 20.5292C162.112 20.7054 162.283 20.9109 162.417 21.1479C162.551 21.3839 162.616 21.6654 162.616 21.9935C162.616 22.3905 162.537 22.7389 162.378 23.0397C162.219 23.3384 162.001 23.5886 161.722 23.7891C161.444 23.9906 161.119 24.1415 160.747 24.2418C160.374 24.3431 159.976 24.3937 159.551 24.3937C159.124 24.3937 158.699 24.3431 158.273 24.2418C157.847 24.1415 157.458 23.9927 157.101 23.7972V22.189Z" fill="#3E454C"></path><path d="M28.675 26.127L25.9539 28.2505C25.6822 28.4627 25.2892 28.4132 25.0786 28.1405L21.8009 23.9068C21.5872 23.6334 21.195 23.5855 20.9233 23.7968L18.2906 25.8497C18.0182 26.0626 17.9689 26.4562 18.1802 26.7296L21.4588 30.9625C21.6717 31.2359 21.6208 31.6303 21.35 31.8416L18.628 33.9652C18.3564 34.1773 17.9626 34.1294 17.7512 33.8552L13.4761 28.3354C13.2632 28.0612 12.8718 28.0117 12.5986 28.2238L9.84611 30.3725C9.5729 30.5846 9.52358 30.979 9.73573 31.2516L17.0005 40.6296C17.2111 40.9038 17.6033 40.9525 17.8765 40.7412L35.4043 27.0674C35.6768 26.8553 35.7253 26.4617 35.5139 26.1875L28.2507 16.8103C28.0386 16.5361 27.6456 16.4866 27.3739 16.6987L24.6207 18.8482C24.3475 19.0603 24.2982 19.4547 24.5095 19.7273L28.7854 25.2479C28.9983 25.5213 28.9475 25.9141 28.675 26.127Z" fill="#3E454C"></path><path d="M17.9441 12.1914L15.2209 14.3139C14.9493 14.5245 14.8992 14.9198 15.1113 15.1933L18.3864 19.4274C18.5978 19.7032 18.5477 20.097 18.2753 20.3091L15.6428 22.3618C15.3712 22.5739 14.9775 22.5236 14.7661 22.2502L11.491 18.0145C11.2796 17.7418 10.8859 17.6915 10.6143 17.9044L7.89182 20.0254C7.61942 20.2368 7.56932 20.6305 7.78067 20.904L12.053 26.4293C12.2644 26.7035 12.2151 27.0972 11.9427 27.3094L9.18731 29.4563C8.9149 29.6685 8.52352 29.619 8.31139 29.3455L1.05512 19.9594C0.842986 19.686 0.893083 19.2922 1.1647 19.0793L18.7003 5.41426C18.9735 5.20208 19.3649 5.25159 19.5762 5.52663L26.8341 14.9112C27.0454 15.1854 26.9953 15.5791 26.7237 15.7913L23.9683 17.9382C23.6952 18.1504 23.3038 18.1017 23.0916 17.8259L18.8201 12.303C18.6079 12.0279 18.2166 11.9792 17.9441 12.1914Z" fill="#3E454C"></path><path d="M161.576 31.1454C161.683 31.0604 161.737 30.9409 161.737 30.7869C161.737 30.633 161.683 30.5145 161.576 30.4315C161.469 30.3484 161.318 30.3069 161.124 30.3069H160.588V31.273H161.124C161.318 31.273 161.469 31.2305 161.576 31.1454ZM162.004 31.2536C161.915 31.3843 161.789 31.4774 161.628 31.5341L162.181 32.3899H161.762L161.258 31.6131H161.153H160.594V32.3899H160.181V29.9604H161.153C161.458 29.9604 161.697 30.0353 161.874 30.1852C162.051 30.3351 162.139 30.5346 162.139 30.7868C162.139 30.969 162.094 31.124 162.004 31.2536ZM161.986 32.7981C162.27 32.632 162.493 32.4052 162.657 32.1176C162.821 31.83 162.904 31.512 162.904 31.1636C162.904 30.8152 162.823 30.4993 162.663 30.2157C162.503 29.9321 162.283 29.7093 162.001 29.5473C161.721 29.3853 161.403 29.3042 161.05 29.3042C160.703 29.3042 160.385 29.3873 160.099 29.5534C159.815 29.7195 159.59 29.9443 159.428 30.2309C159.267 30.5165 159.186 30.8314 159.186 31.1758C159.186 31.5201 159.267 31.835 159.428 32.1206C159.59 32.4062 159.814 32.632 160.096 32.7981C160.38 32.9642 160.694 33.0473 161.039 33.0473C161.386 33.0473 161.702 32.9642 161.986 32.7981ZM162.142 29.3105C162.467 29.4969 162.724 29.7531 162.91 30.0792C163.096 30.4053 163.19 30.7668 163.19 31.1638C163.19 31.5608 163.094 31.9243 162.904 32.2545C162.713 32.5846 162.454 32.8449 162.126 33.0353C161.799 33.2257 161.435 33.3199 161.039 33.3199C160.641 33.3199 160.281 33.2257 159.953 33.0353C159.627 32.8449 159.37 32.5857 159.183 32.2575C158.993 31.9284 158.899 31.5689 158.899 31.1759C158.899 30.783 158.993 30.4225 159.183 30.0944C159.37 29.7662 159.628 29.507 159.956 29.3166C160.286 29.1262 160.649 29.031 161.05 29.031C161.451 29.031 161.815 29.1242 162.142 29.3105Z" fill="#3E454C"></path></g></svg>
